<svg id="Layer_1" data-name="Layer 1" xmlns="http://www.w3.org/2000/svg" viewBox="0 0 221.83 439.12"><defs><style>.cls-1{fill:#fff;}</style></defs><g id="AFx6S5.tif"><path d="M138.54,447c1.07-10.79,2.17-21,3.08-31.29q7.59-85.8,15-171.63c.22-2.59-.5-6-2.14-7.85-3.63-4.06-5.59-8.1-3.61-13.42,2.13-5.73,6.79-7.43,12.36-7.68,1.68-.08,3.35-.33,5.79-.58V188.45c0-18.5,1.13-19.79,19.57-21.8v-51.4c-2.32-.17-4.68-.49-7-.48-6.27,0-10.51-2.87-12.12-8.87-1.55-5.77,1-10.06,5.86-13.21C192.5,81.48,209.56,70,227,59.16c6.14-3.83,9.91-7.56,9.45-15.64-.45-7.77,5-12.1,12.17-11.78,6.75.3,11.15,4.56,10.7,12.4-.4,7.1,2.76,10.58,8.31,14,16.67,10.2,33,20.92,49.54,31.38,6,3.77,12.35,7.21,10.35,16-1.76,7.69-7.86,9.37-15,9.64v51.29c13.7,2.63,15.24,4.5,15.27,18.31,0,9.84,0,19.69,0,30,3.89.19,7.21-.51,9.64.66,3.92,1.89,8.86,4.33,10.34,7.81,1.29,3.07-1.5,7.93-2.64,12-.81,2.86-2.9,5.73-2.68,8.46,2.87,36,6,72,9.16,108q3.84,44.39,7.79,88.77c.17,1.92.54,3.82.94,6.59h0a22,22,0,0,1-17.83,21.6L335.18,470c-63.82,1.41-127.7.61-191.55.38h0a46.77,46.77,0,0,1-5.09-21.23Zm198.11-.51c-1.48-16.24-2.92-31.5-4.25-46.77-4.47-51.28-9-102.56-13.16-153.87-.51-6.38-2.8-7.59-8.55-7.56-40.86.21-81.72.11-122.58.11h-8c-6,69.75-12,138.65-18,208.06h82.81c.44-.89.84-1.31.85-1.74.11-9.66-.35-19.36.45-28.95a34.07,34.07,0,0,1,4.84-15.12c5.43-8.4,16.39-11.39,25.7-8.33a23.85,23.85,0,0,1,16.34,22.51c.22,10.54.05,21.1.05,31.66ZM192.88,214.82h25.46c26.24,0,52.48.09,78.72-.15,2.31,0,6.43-2,6.58-3.35.71-6.49.31-13.09.31-19.88H192.88Zm95.31-47.92V115.36H260.7V166.9Zm-51.88,0V115.37H212.45v51.55ZM222,90.39h52.18c-8.9-5.72-16.09-10.45-23.43-14.93-1.23-.76-3.57-1.1-4.67-.44C238.45,79.67,231,84.63,222,90.39Z" transform="translate(-138.54 -31.72)"/><path class="cls-1" d="M192.88,214.82V191.44H304c0,6.79.4,13.39-.31,19.88-.15,1.39-4.27,3.33-6.58,3.35-26.24.24-52.48.15-78.72.15Z" transform="translate(-138.54 -31.72)"/><path class="cls-1" d="M288.19,166.9H260.7V115.36h27.49Z" transform="translate(-138.54 -31.72)"/><path class="cls-1" d="M236.31,166.92H212.45V115.37h23.86Z" transform="translate(-138.54 -31.72)"/><path class="cls-1" d="M222,90.39C231,84.63,238.45,79.67,246.12,75c1.1-.66,3.44-.32,4.67.44,7.34,4.48,14.53,9.21,23.43,14.93Z" transform="translate(-138.54 -31.72)"/><path d="M284.82,322.61v12.31a3.18,3.18,0,0,1-3.17,3.19H257.09a3.18,3.18,0,0,1-3.18-3.19V322.61c.05-8,7.84-15.56,16-15.4C277.79,307.35,284.7,314.47,284.82,322.61Z" transform="translate(-138.54 -31.72)"/></g></svg>